Coordinates
version=1
nRows=8
nColumns=33
inDegrees=yes

Units are S.I. units (second, meters, Newtons, ...)
Angles are in degrees.

endheader
time	ground_thorax_rot_x	ground_thorax_rot_y	ground_thorax_rot_z	ground_thorax_tx	ground_thorax_ty	ground_thorax_tz	clav_prot_r	clav_elev_r	scapula_abduction_r	scapula_elevation_r	scapula_upward_rot_r	scapula_winging_r	shoulder_elv_r	plane_of_elev_r	axial_rot_r	elbow_flexion_r	pro_sup_r	wrist_flex_r	wrist_dev_r	clav_prot_l	clav_elev_l	scapula_abduction_l	scapula_elevation_l	scapula_upward_rot_l	scapula_winging_l	shoulder_elv_l	plane_of_elev_l	axial_rot_l	elbow_flexion_l	pro_sup_l	wrist_flex_l	wrist_dev_l
      2.06000000	     -1.98239690	      3.79079194	     10.70401595	     -0.10788742	      1.02937912	      0.01527259	     13.51083820	    -16.72281152	     30.10757517	    -13.60899762	     12.75649485	     -5.17535007	     -5.82186194	    -62.06554535	    122.43903983	    -53.52042654	   -159.94988892	      2.56636928	      7.08366747	     21.10415860	     -9.72252302	    -31.09490776	     -9.22263131	    -29.04130340	      8.63844196	     57.21261261	     -5.78190662	     10.20943571	     31.22318099	     10.90080185	     22.45102812	     -8.92055880
      2.07000000	     -1.86443378	      3.58883968	     10.75581777	     -0.10848569	      1.02922791	      0.01504259	     13.25552789	    -16.28915057	     29.53078128	    -13.12564669	     12.44510074	     -5.23152344	     -6.42117380	    -62.49234920	    122.58191365	    -55.23617454	   -160.22236383	      2.89477364	      7.05775649	     20.87141002	     -9.19611012	    -30.76662062	     -9.88711332	    -29.44748294	      8.49952196	     57.00794945	     -6.18138965	     10.42592522	     33.01475971	     10.67244540	     22.47650821	     -9.25292881
      2.08000000	     -1.73988840	      3.41752207	     10.86294785	     -0.10918620	      1.02908239	      0.01481960	     13.04425274	    -15.89981225	     28.95226735	    -12.64211855	     12.02073644	     -5.26425954	     -7.04539966	    -63.00662253	    122.62385788	    -57.00972430	   -160.56079797	      3.21472725	      7.00599177	     20.65727428	     -8.74743621	    -30.46488629	    -10.52232699	    -29.93447413	      8.34432103	     56.90269884	     -6.75500502	     10.35122309	     35.00587015	     10.42052632	     22.51489231	     -9.58593921
      2.09000000	     -1.80218341	      3.31225102	     11.03553913	     -0.10989262	      1.03006702	      0.01479954	     12.81789411	    -16.37026283	     28.04764656	    -12.78157165	     11.14297540	     -4.63524077	     -8.17951537	    -63.87386324	    121.70199589	    -58.99661013	   -162.50824038	      3.21251517	      6.57746217	     20.27164493	     -9.03913431	    -29.81883574	    -10.51754846	    -30.41841355	      7.88641826	     57.80035812	     -8.63385326	      9.00502019	     37.51056816	      9.78505903	     22.57856983	     -9.36230513
      2.10000000	     -1.59736403	      3.18197472	     11.01699317	     -0.11034054	      1.02991575	      0.01446695	     12.54265719	    -15.88956524	     27.42410741	    -12.24238355	     10.80568523	     -4.69567305	     -8.73935578	    -64.47207568	    121.74374682	    -60.78123681	   -162.78652080	      3.57944856	      6.49901738	     19.99254009	     -8.53212828	    -29.41031090	    -11.16868688	    -30.81677790	      7.68069741	     57.52208644	     -8.99004720	      9.31060791	     39.38721666	      9.43891530	     22.55360322	     -9.62700209
      2.11000000	     -1.64621221	      3.01667652	     11.10013886	     -0.11074404	      1.03079139	      0.01429625	     12.27189382	    -16.42383033	     26.49174900	    -12.45814884	      9.99073075	     -4.01016769	    -10.01882610	    -65.58884400	    120.80393338	    -62.81875034	   -164.94802902	      3.90350495	      5.63433454	     19.42425769	     -8.61945000	    -28.46488253	    -11.28117369	    -31.14649974	      7.10686711	     58.24816636	    -10.67817824	      8.20208699	     41.73684803	      8.33740228	     22.39068078	     -9.01524819
      2.12000000	     -1.47033223	      2.81091077	     11.05981267	     -0.11122674	      1.03057659	      0.01411451	     12.00855636	    -15.87639512	     25.88219457	    -11.84911150	      9.64193690	     -4.11676198	    -10.58284874	    -66.09984144	    120.90834446	    -64.67079752	   -165.12620782	      4.31330629	      5.56599401	     19.17643458	     -8.08684814	    -28.11078121	    -11.95793694	    -31.54737571	      6.92761434	     57.98381838	    -11.08891714	      8.52169973	     43.44869843	      8.03644167	     22.36013086	     -9.27816602
      2.13000000	     -1.50015002	      2.70654240	     11.23594427	     -0.11172627	      1.03109944	      0.01381543	     11.80992674	    -16.21310091	     24.99581834	    -11.82505729	      8.67986257	     -3.59135341	    -11.77710775	    -67.21393972	    120.10265518	    -66.57046815	   -166.67954589	      5.03498633	      4.43362231	     18.64193229	     -8.02640603	    -27.23117128	    -12.19766098	    -31.87252711	      6.41531875	     58.53324704	    -12.63509952	      7.55606684	     45.75259477	      7.07856043	     22.05368890	     -8.86620728
